<svg width="48" height="48" viewBox="0 0 48 48" fill="none" xmlns="http://www.w3.org/2000/svg" role="img" aria-label="NamAsta Diagnostics">
  <defs>
    <linearGradient id="bg" x1="2" y1="2" x2="46" y2="46" gradientUnits="userSpaceOnUse">
      <stop stop-color="#8e1530"/>
      <stop offset="0.5" stop-color="#6a0f22"/>
      <stop offset="1" stop-color="#3c0813"/>
    </linearGradient>
    <linearGradient id="drop" x1="24" y1="19" x2="24" y2="29" gradientUnits="userSpaceOnUse">
      <stop stop-color="#ff6b70"/>
      <stop offset="1" stop-color="#d61f2b"/>
    </linearGradient>
    <radialGradient id="gloss" cx="0.22" cy="0.1" r="0.85">
      <stop stop-color="#ffffff" stop-opacity="0.4"/>
      <stop offset="0.5" stop-color="#ffffff" stop-opacity="0.05"/>
      <stop offset="1" stop-color="#ffffff" stop-opacity="0"/>
    </radialGradient>
  </defs>
  <rect x="2" y="2" width="44" height="44" rx="13" fill="url(#bg)"/>
  <rect x="2" y="2" width="44" height="44" rx="13" fill="url(#gloss)"/>
  <rect x="2.6" y="2.6" width="42.8" height="42.8" rx="12.5" fill="none" stroke="#ffffff" stroke-opacity="0.16"/>
  <g transform="translate(6.84,6.27) scale(0.716)">
    <g stroke="#ffffff" stroke-width="3.05" stroke-linecap="round" stroke-linejoin="round" fill="none">
      <line x1="30.2" y1="8.6" x2="24.6" y2="16.4"/>
      <path d="M 24.6,16.4 Q 34.4,20.5 31.2,31.5"/>
      <line x1="24.6" y1="16.4" x2="21.6" y2="23.2"/>
      <line x1="13.4" y1="28.2" x2="29.6" y2="28.2"/>
      <line x1="22.4" y1="28.2" x2="22.4" y2="33.4"/>
      <path d="M 13,38 Q 23,33.2 33,38"/>
    </g>
    <circle cx="31.4" cy="7.4" r="3.05" fill="#ffffff"/>
    <path d="M 20.4,19.4 C 22.3,22.2 23.6,23.8 23.6,25.2 C 23.6,27 22.2,28.1 20.4,28.1 C 18.6,28.1 17.2,27 17.2,25.2 C 17.2,23.8 18.5,22.2 20.4,19.4 Z" fill="url(#drop)"/>
    <ellipse cx="19.4" cy="24.8" rx="0.85" ry="1.3" fill="#ffffff" opacity="0.6" transform="rotate(-20 19.4 24.8)"/>
  </g>
</svg>
