<svg width="48" height="48" viewBox="0 0 48 48" fill="none" xmlns="http://www.w3.org/2000/svg" role="img" aria-label="NamAsta Diagnostics">
  <defs>
    <linearGradient id="bg" x1="3" y1="2" x2="45" y2="46" gradientUnits="userSpaceOnUse">
      <stop stop-color="#22d3ee"/>
      <stop offset="0.5" stop-color="#3b82f6"/>
      <stop offset="1" stop-color="#4f46e5"/>
    </linearGradient>
    <linearGradient id="specimen" x1="0" y1="0" x2="0" y2="1">
      <stop stop-color="#fde047"/>
      <stop offset="1" stop-color="#fbbf24"/>
    </linearGradient>
    <radialGradient id="gloss" cx="0.24" cy="0.08" r="0.9">
      <stop stop-color="#ffffff" stop-opacity="0.45"/>
      <stop offset="0.5" stop-color="#ffffff" stop-opacity="0.07"/>
      <stop offset="1" stop-color="#ffffff" stop-opacity="0"/>
    </radialGradient>
  </defs>
  <rect x="2" y="2" width="44" height="44" rx="13" fill="url(#bg)"/>
  <rect x="2" y="2" width="44" height="44" rx="13" fill="url(#gloss)"/>
  <rect x="2.6" y="2.6" width="42.8" height="42.8" rx="12.5" fill="none" stroke="#ffffff" stroke-opacity="0.18"/>
  <g transform="translate(7.69,6.84) scale(0.683)" fill="#ffffff">
    <path d="M 23,7.5 C 32.5,7.5 35.5,15 33.5,23 L 28.7,23 C 30,17.5 28.5,12.6 23,12.6 Z"/>
    <rect x="20.4" y="8.2" width="6.4" height="17.2" rx="3.2"/>
    <rect x="19.2" y="6" width="8.8" height="4.6" rx="2.3"/>
    <rect x="21.4" y="24.2" width="4.4" height="3.4" rx="1.5"/>
    <rect x="11.5" y="27.4" width="17" height="3.8" rx="1.9"/>
    <rect x="21.4" y="30" width="5" height="6.4" rx="1.8"/>
    <path d="M 11,40.4 C 11,37 14.5,35 24,35 C 33.5,35 37,37 37,40.4 C 37,41.7 35.8,42.4 33.4,42.4 L 14.6,42.4 C 12.2,42.4 11,41.7 11,40.4 Z"/>
    <circle cx="16" cy="25.2" r="2" fill="url(#specimen)"/>
    <circle cx="20" cy="26" r="1.25" fill="url(#specimen)"/>
  </g>
</svg>
